<svg xmlns="http://www.w3.org/2000/svg" viewBox="0 0 512 512" role="img" aria-labelledby="title desc">
  <title>Galeria AMOR</title>
  <desc>Ícone com um gatinho abraçando um coração roxo com a palavra AMOR.</desc>
  <defs>
    <linearGradient id="bg" x1="0" y1="0" x2="1" y2="1">
      <stop offset="0%" stop-color="#fff7fb"/>
      <stop offset="100%" stop-color="#ffe4f1"/>
    </linearGradient>
    <linearGradient id="heart" x1="0" y1="0" x2="1" y2="1">
      <stop offset="0%" stop-color="#ff7bf0"/>
      <stop offset="100%" stop-color="#c400ff"/>
    </linearGradient>
    <filter id="softShadow" x="-20%" y="-20%" width="140%" height="140%">
      <feDropShadow dx="0" dy="10" stdDeviation="12" flood-color="#d66aa0" flood-opacity="0.18"/>
    </filter>
  </defs>

  <rect width="512" height="512" rx="92" fill="url(#bg)"/>

  <g opacity="0.55" stroke-linecap="round">
    <path d="M68 104l36 18M86 70l8 32M124 52l-2 34M414 108l-36 18M426 72l-8 32M388 52l2 34" stroke="#f7bfd8" stroke-width="8"/>
    <path d="M54 220l34 16M452 216l-34 16M66 340l38 14M446 338l-38 14" stroke="#cdbefb" stroke-width="7"/>
    <path d="M104 400l68-8M408 398l-68-8" stroke="#ffb8d2" stroke-width="9"/>
    <path d="M150 108l26 14M178 86l-2 30M354 108l-26 14M326 86l2 30" stroke="#ffb8d2" stroke-width="8"/>
  </g>

  <g filter="url(#softShadow)">
    <ellipse cx="162" cy="300" rx="42" ry="54" fill="#d9c2b5" opacity="0.88"/>
    <ellipse cx="350" cy="300" rx="42" ry="54" fill="#d9c2b5" opacity="0.88"/>
    <ellipse cx="162" cy="300" rx="28" ry="38" fill="#b79c8c" opacity="0.72"/>
    <ellipse cx="350" cy="300" rx="28" ry="38" fill="#b79c8c" opacity="0.72"/>

    <path d="M190 128L152 178M322 128l38 50" fill="none" stroke="#7c5a49" stroke-width="16" stroke-linecap="round" stroke-linejoin="round"/>
    <path d="M150 178c-16 32-18 78-3 113" fill="none" stroke="#7c5a49" stroke-width="16" stroke-linecap="round"/>
    <path d="M362 178c16 32 18 78 3 113" fill="none" stroke="#7c5a49" stroke-width="16" stroke-linecap="round"/>
    <path d="M195 198c28-28 94-28 122 0" fill="none" stroke="#7c5a49" stroke-width="12" stroke-linecap="round"/>
    <path d="M212 224c10 7 22 7 32 0" fill="none" stroke="#7c5a49" stroke-width="8" stroke-linecap="round"/>
    <path d="M268 224c10 7 22 7 32 0" fill="none" stroke="#7c5a49" stroke-width="8" stroke-linecap="round"/>
    <path d="M248 242c8 10 8 18 0 26" fill="none" stroke="#7c5a49" stroke-width="7" stroke-linecap="round"/>

    <path d="M176 170c-2 20 8 38 28 48" fill="none" stroke="#d8c5ef" stroke-width="22" stroke-linecap="round" opacity="0.75"/>
    <path d="M336 170c2 20-8 38-28 48" fill="none" stroke="#d8c5ef" stroke-width="22" stroke-linecap="round" opacity="0.75"/>

    <g transform="translate(0 4)">
      <path d="M256 180 C214 136 148 142 136 210 C124 276 174 320 256 392 C338 320 388 276 376 210 C364 142 298 136 256 180Z" fill="url(#heart)" stroke="#d000ff" stroke-width="10" stroke-linejoin="round"/>
      <path d="M256 180 C214 136 148 142 136 210 C124 276 174 320 256 392 C338 320 388 276 376 210 C364 142 298 136 256 180Z" fill="none" stroke="#ffb2f2" stroke-width="4" opacity="0.7" stroke-linejoin="round"/>

      <path d="M164 236c18 8 38 20 62 36" fill="none" stroke="#ff7e4f" stroke-width="16" stroke-linecap="round" stroke-linejoin="round"/>
      <path d="M215 270c17 12 28 24 33 38" fill="none" stroke="#ff7e4f" stroke-width="16" stroke-linecap="round" stroke-linejoin="round"/>
      <path d="M260 294c12-10 31-24 57-43" fill="none" stroke="#ff7e4f" stroke-width="16" stroke-linecap="round" stroke-linejoin="round"/>
      <path d="M307 248c9 8 15 20 19 36" fill="none" stroke="#ff7e4f" stroke-width="16" stroke-linecap="round" stroke-linejoin="round"/>
    </g>

    <path d="M252 392c-4 18-2 30 4 42c6-12 8-24 4-42" fill="#d000ff"/>
  </g>

  <g fill="none" stroke="#7c5a49" stroke-width="6" stroke-linecap="round" opacity="0.9">
    <path d="M116 202l-18-8M114 224l-22-2M116 246l-20 8"/>
    <path d="M396 202l18-8M398 224l22-2M396 246l20 8"/>
  </g>
</svg>